<?xml version="1.0" encoding="UTF-8" standalone="no"?>
<!-- Created with Inkscape (http://www.inkscape.org/) -->

<svg
   xmlns:dc="http://purl.org/dc/elements/1.1/"
   xmlns:cc="http://creativecommons.org/ns#"
   xmlns:rdf="http://www.w3.org/1999/02/22-rdf-syntax-ns#"
   xmlns:svg="http://www.w3.org/2000/svg"
   xmlns="http://www.w3.org/2000/svg"
   xmlns:sodipodi="http://sodipodi.sourceforge.net/DTD/sodipodi-0.dtd"
   xmlns:inkscape="http://www.inkscape.org/namespaces/inkscape"
   width="154.31377mm"
   height="17.244133mm"
   viewBox="0 0 154.31377 17.244133"
   version="1.1"
   id="svg8"
   inkscape:version="0.92.4 (unknown)"
   sodipodi:docname="drawing.svg">
  <defs
     id="defs2" />
  <sodipodi:namedview
     id="base"
     pagecolor="#ffffff"
     bordercolor="#666666"
     borderopacity="1.0"
     inkscape:pageopacity="0.0"
     inkscape:pageshadow="2"
     inkscape:zoom="1.4"
     inkscape:cx="275.95158"
     inkscape:cy="1.6630025"
     inkscape:document-units="mm"
     inkscape:current-layer="layer1"
     showgrid="false"
     inkscape:window-width="1920"
     inkscape:window-height="1016"
     inkscape:window-x="0"
     inkscape:window-y="27"
     inkscape:window-maximized="1" />
  <metadata
     id="metadata5">
    <rdf:RDF>
      <cc:Work
         rdf:about="">
        <dc:format>image/svg+xml</dc:format>
        <dc:type
           rdf:resource="http://purl.org/dc/dcmitype/StillImage" />
        <dc:title></dc:title>
      </cc:Work>
    </rdf:RDF>
  </metadata>
  <g
     inkscape:label="Layer 1"
     inkscape:groupmode="layer"
     id="layer1"
     transform="translate(-17.945973,-106.64498)">
    <g
       id="g837"
       transform="matrix(0.01758197,0,0,0.01758197,10.543964,102.58504)"
       style="stroke-width:15.048563">
      <path
         id="path817"
         d="m 808,336 387,218.9 V 992.8 L 808,1211.7 421,992.8 V 554.9 Z"
         inkscape:connector-curvature="0"
         style="fill:#ffffff;stroke-width:15.048563" />
      <path
         id="path819"
         d="m 1125.9,977.7 -305.1,172.6 v -134.4 l 190.1,-104.6 z m 20.9,-18.9 V 597.9 l -111.6,64.5 v 232 z M 488.9,977.7 794,1150.3 V 1015.9 L 603.8,911.3 Z M 468,958.8 V 597.9 l 111.6,64.5 v 232 z M 481.1,574.5 794,397.5 v 129.9 l -200.5,110.3 -1.6,0.9 z m 652.6,0 -312.9,-177 v 129.9 l 200.5,110.2 1.6,0.9 z"
         inkscape:connector-curvature="0"
         style="fill:#8ed6fb;stroke-width:15.048563" />
      <path
         id="path821"
         d="M 794,985.3 606.4,882.1 V 677.8 L 794,786.1 Z m 26.8,0 187.6,-103.1 V 677.8 L 820.8,786.1 Z m -13.4,-207 z M 619.1,654.2 807.4,550.7 995.7,654.2 807.4,762.9 Z"
         inkscape:connector-curvature="0"
         style="fill:#1c78c0;stroke-width:15.048563" />
      <path
         id="path823"
         d="m 1585.3,912.3 h 82.5 l 84.1,-280.2 h -80.4 l -49.8,198.8 -53.1,-198.8 H 1499 l -53.6,198.8 -49.3,-198.8 h -80.4 l 83.6,280.2 h 82.5 l 52,-179.5 z M 1756.2,773 c 0,84.1 57.3,146.3 147.4,146.3 69.7,0 107.2,-41.8 117.9,-61.6 l -48.8,-37 c -8,11.8 -30,34.3 -68.1,34.3 -41.3,0 -71.3,-26.8 -72.9,-64.3 H 2029 c 0.5,-5.4 0.5,-10.7 0.5,-16.1 0,-91.6 -49.3,-149.5 -136.1,-149.5 -79.9,0 -137.2,63.2 -137.2,147.9 z m 77.7,-30.6 c 3.2,-32.1 25.7,-56.8 60.6,-56.8 33.8,0 58.4,22.5 60,56.8 z m 223.5,169.9 h 69.7 v -28.9 c 7.5,9.1 35.4,35.9 83.1,35.9 80.4,0 137.2,-60.5 137.2,-146.8 0,-86.8 -52.5,-147.3 -132.9,-147.3 -48.2,0 -76.1,26.8 -83.1,36.4 V 524.9 h -73.9 V 912.3 Z M 2129.2,773 c 0,-52.5 31.1,-82.5 71.8,-82.5 42.9,0 71.8,33.8 71.8,82.5 0,49.8 -30,80.9 -71.8,80.9 -45,0 -71.8,-36.5 -71.8,-80.9 z m 247,239.5 h 73.9 V 883.3 c 7,9.1 34.8,35.9 83.1,35.9 80.4,0 132.9,-60.5 132.9,-147.3 0,-85.7 -56.8,-146.8 -137.2,-146.8 -47.7,0 -75.6,26.8 -83.1,36.4 V 632 h -69.7 v 380.5 z M 2448,771.4 c 0,-44.5 26.8,-80.9 71.8,-80.9 41.8,0 71.8,31.1 71.8,80.9 0,48.8 -28.9,82.5 -71.8,82.5 -40.7,0 -71.8,-30 -71.8,-82.5 z m 231.5,54.1 c 0,58.9 48.2,93.8 105,93.8 32.2,0 53.6,-9.6 68.1,-25.2 l 4.8,18.2 h 65.4 V 734.9 c 0,-62.7 -26.8,-109.8 -116.8,-109.8 -42.9,0 -85.2,16.1 -110.4,33.2 l 27.9,50.4 c 20.9,-10.7 46.6,-19.8 74.5,-19.8 32.7,0 50.9,16.6 50.9,41.3 v 18.2 c -10.2,-7 -32.2,-15.5 -60.6,-15.5 -65.4,-0.1 -108.8,37.4 -108.8,92.6 z m 73.9,-2.2 c 0,-23 19.8,-39.1 48.2,-39.1 28.4,0 48.8,14.5 48.8,39.1 0,23.6 -20.4,38.6 -48.2,38.6 -27.8,0 -48.8,-15.5 -48.8,-38.6 z m 348.9,30.6 c -46.6,0 -79.8,-33.8 -79.8,-81.4 0,-45 29.5,-82 77.2,-82 31.6,0 53.1,15.5 65.4,26.8 l 20.9,-62.2 c -18.2,-13.9 -47.2,-30 -88.4,-30 -85.2,0 -149,62.7 -149,147.9 0,85.2 62.2,146.3 149.5,146.3 40.7,0 71.3,-17.1 87.3,-30 l -19.8,-60.5 c -12.4,10.1 -34.9,25.1 -63.3,25.1 z m 110.9,58.4 h 73.9 V 767.6 l 93.8,144.7 h 86.8 L 3361.6,759 3460.2,632 h -83.1 l -90,117.9 v -225 h -73.9 z"
         inkscape:connector-curvature="0"
         style="fill:#1a1c1c;stroke-width:15.048563" />
    </g>
    <path
       id="path839"
       d="m 138.368,115.86887 c -0.74925,0.004 -1.39804,0.18419 -1.94218,0.45211 -0.20093,-0.39764 -0.40184,-0.7451 -0.43529,-1.00458 -0.0377,-0.30137 -0.0837,-0.48559 -0.0377,-0.84552 0.046,-0.36001 0.25529,-0.87068 0.25529,-0.91253 -0.004,-0.0377 -0.0461,-0.22185 -0.47717,-0.22603 -0.43108,-0.004 -0.80366,0.0837 -0.84552,0.19673 -0.0418,0.11301 -0.12557,0.37253 -0.17998,0.64042 -0.0753,0.39346 -0.86227,1.78731 -1.31015,2.51982 -0.1465,-0.28464 -0.27207,-0.53578 -0.29722,-0.73674 -0.0376,-0.30133 -0.0837,-0.48554 -0.0376,-0.84547 0.0461,-0.36002 0.25533,-0.87064 0.25533,-0.9125 -0.004,-0.0377 -0.0461,-0.22184 -0.47713,-0.22603 -0.43117,-0.004 -0.80366,0.0837 -0.84552,0.19673 -0.0418,0.11301 -0.0879,0.3809 -0.17999,0.64043 -0.0879,0.2595 -1.13437,2.58679 -1.40645,3.19371 -0.13813,0.30975 -0.25948,0.55671 -0.34742,0.72413 -0.0879,0.16744 -0.004,0.0125 -0.0125,0.0293 -0.0753,0.14232 -0.1172,0.22185 -0.1172,0.22185 v 0.004 c -0.0586,0.10465 -0.12139,0.20507 -0.15074,0.20507 -0.0209,0 -0.0627,-0.28045 0.009,-0.6655 0.15489,-0.80789 0.5316,-2.06775 0.52745,-2.1138 0,-0.0209 0.0711,-0.24281 -0.24281,-0.35578 -0.30556,-0.11302 -0.41435,0.0753 -0.4395,0.0753 -0.0251,0 -0.0461,0.067 -0.0461,0.067 0,0 0.33904,-1.41893 -0.64879,-1.41893 -0.61949,0 -1.47337,0.67391 -1.89614,1.28922 -0.26789,0.14649 -0.83715,0.4562 -1.4399,0.78692 -0.23021,0.12557 -0.4688,0.25951 -0.69482,0.38089 l -0.046,-0.0503 c -1.19713,-1.27665 -3.41138,-2.18077 -3.31929,-3.89692 0.0335,-0.62368 0.25114,-2.26868 4.25275,-4.26109 3.27744,-1.63244 5.9019,-1.18456 6.3581,-0.18836 0.6488,1.42316 -1.40222,4.06854 -4.80937,4.44945 -1.29758,0.1465 -1.9799,-0.35579 -2.15147,-0.54415 -0.17999,-0.19672 -0.2051,-0.2051 -0.27208,-0.16743 -0.10883,0.0586 -0.0419,0.23441 0,0.33904 0.10046,0.2637 0.51903,0.7325 1.23061,0.96691 0.62364,0.2051 2.14728,0.31812 3.98901,-0.39346 2.06358,-0.79947 3.67509,-3.01792 3.20209,-4.87221 -0.48135,-1.88776 -3.61229,-2.50725 -6.57162,-1.45663 -1.76223,0.62786 -3.67093,1.60732 -5.04385,2.89235 -1.63244,1.52361 -1.89196,2.85467 -1.78313,3.40719 0.38095,1.97148 3.09745,3.25651 4.18575,4.20668 -0.0544,0.0293 -0.10465,0.0585 -0.15069,0.0837 -0.54415,0.26785 -2.61609,1.35199 -3.13513,2.49885 -0.586,1.29758 0.0921,2.23104 0.54415,2.35662 1.39803,0.38926 2.82956,-0.30975 3.60393,-1.46083 0.77013,-1.15109 0.67809,-2.64539 0.3223,-3.32767 l -0.0126,-0.0251 0.42695,-0.25114 c 0.2763,-0.16325 0.54837,-0.31394 0.78691,-0.44373 -0.13389,0.36415 -0.23021,0.79529 -0.2804,1.42315 -0.0586,0.73673 0.24277,1.69104 0.64042,2.06775 0.1758,0.16321 0.38509,0.16744 0.51485,0.16744 0.46043,0 0.66972,-0.38095 0.89994,-0.83715 0.28463,-0.55671 0.53577,-1.20131 0.53577,-1.20131 0,0 -0.31394,1.74545 0.54414,1.74545 0.31393,0 0.62787,-0.40602 0.77018,-0.6153 v 0.004 c 0,0 0.009,-0.0125 0.0251,-0.0418 a 1.5123089,1.5123089 0 0 0 0.0502,-0.0795 v -0.009 c 0.12557,-0.21766 0.40601,-0.71575 0.8246,-1.54035 0.53991,-1.06318 1.05899,-2.39424 1.05899,-2.39424 0,0 0.0502,0.32648 0.2051,0.86226 0.092,0.31815 0.29295,0.66553 0.44783,1.00458 -0.12558,0.1758 -0.20092,0.2763 -0.20092,0.2763 l 0.004,0.004 c -0.10042,0.13395 -0.21348,0.2763 -0.33064,0.41858 -0.42694,0.51065 -0.93761,1.09251 -1.00458,1.25994 -0.0795,0.19669 -0.0628,0.3432 0.0921,0.46043 0.11301,0.0837 0.31393,0.10042 0.5274,0.0837 0.38509,-0.0251 0.65298,-0.12139 0.78692,-0.18003 0.20929,-0.0753 0.44788,-0.18836 0.67809,-0.3558 0.41857,-0.30969 0.6739,-0.7492 0.64879,-1.33521 -0.0125,-0.32229 -0.1172,-0.64041 -0.24696,-0.94178 0.0377,-0.0545 0.0754,-0.10888 0.11302,-0.16743 0.66135,-0.96696 1.17201,-2.03009 1.17201,-2.03009 0,0 0.0502,0.32649 0.2051,0.86226 0.0795,0.27208 0.23859,0.56931 0.3809,0.8623 -0.61949,0.50648 -1.00877,1.09249 -1.14271,1.47758 -0.24696,0.71158 -0.0544,1.03387 0.30975,1.10922 0.16321,0.0335 0.39764,-0.0419 0.5734,-0.1172 0.21766,-0.0711 0.48137,-0.19259 0.72417,-0.37253 0.41858,-0.30975 0.82041,-0.74088 0.79949,-1.3227 -0.0125,-0.26789 -0.0837,-0.53159 -0.17999,-0.78274 0.5274,-0.21765 1.20964,-0.34322 2.07612,-0.23858 1.86267,0.21766 2.23101,1.38129 2.15989,1.86684 -0.0712,0.48559 -0.46043,0.75343 -0.59023,0.83715 -0.12976,0.0796 -0.17162,0.10887 -0.15906,0.16743 0.0167,0.0879 0.0753,0.0837 0.18836,0.0671 0.15487,-0.0251 0.97946,-0.39764 1.01295,-1.29335 0.0502,-1.15124 -1.04225,-2.40696 -2.98025,-2.39445 z m -14.36547,4.84292 c -0.6153,0.6739 -1.48176,0.92923 -1.8501,0.71158 -0.39765,-0.23023 -0.24282,-1.22225 0.51484,-1.93801 0.46043,-0.43532 1.05899,-0.83714 1.45246,-1.08411 0.0879,-0.0544 0.22184,-0.13389 0.3809,-0.23021 0.0251,-0.0167 0.0418,-0.0251 0.0418,-0.0251 0.0293,-0.0167 0.0628,-0.0377 0.0963,-0.0586 0.28045,1.02132 0.0125,1.91707 -0.63623,2.62446 z m 4.49967,-3.05979 c -0.21347,0.52322 -0.66553,1.86685 -0.93761,1.7915 -0.23443,-0.0627 -0.37671,-1.07992 -0.0461,-2.0845 0.16743,-0.50651 0.52322,-1.10921 0.7325,-1.34366 0.33909,-0.37672 0.7074,-0.50229 0.79952,-0.34742 0.10883,0.20095 -0.41438,1.6576 -0.54833,1.98408 z m 3.71276,1.77476 c -0.0921,0.0461 -0.1758,0.0796 -0.21348,0.0545 -0.0294,-0.0167 0.0376,-0.0796 0.0376,-0.0796 0,0 0.46462,-0.49809 0.64879,-0.72832 0.10464,-0.13389 0.23022,-0.28877 0.36416,-0.46461 v 0.0502 c 4e-5,0.60272 -0.57759,1.00455 -0.83711,1.16778 z m 2.863,-0.65298 c -0.067,-0.0502 -0.0585,-0.2051 0.16743,-0.69064 0.0879,-0.19254 0.28881,-0.51485 0.63623,-0.8204 0.0419,0.12556 0.067,0.24691 0.0628,0.35997 -0.004,0.75343 -0.53992,1.03387 -0.86646,1.15107 z"
       inkscape:connector-curvature="0"
       style="fill:#cf649a;stroke-width:1.29191065" />
    <g
       id="g960"
       transform="matrix(0.19378104,0,0,0.19378104,82.92781,103.18139)"
       style="stroke-width:1.36537266">
	<path
   id="path852"
   d="m 107.4,50.9 c -0.2,-4.4 0.4,-8.3 -1.6,-11.6 C 101,31.1 89,26.3 65,26.3 V 27 c 0,0 -0.5,0 -0.5,0 0,0 0.5,0 0.5,0 v -0.7 c -24,0 -36.6,4.8 -41.4,13.1 -1.9,3.4 -1.7,7.2 -2,11.6 -0.2,3.5 -1.8,7.2 -1.1,11.2 0.8,5.2 1.1,10.4 1.9,15.2 0.6,3.9 6,7.2 6.5,10.9 1.4,10.2 12,14.9 36,14.9 v 0.8 h -0.6 0.1 0.6 v -0.8 c 24,0 34.2,-4.7 35.5,-14.9 0.5,-3.8 5.5,-7 6.1,-10.9 0.8,-4.8 1.1,-10 1.9,-15.2 0.7,-4 -0.9,-7.8 -1.1,-11.3 z"
   class="st1"
   inkscape:connector-curvature="0"
   style="fill:#efcca3;stroke-width:1.36537266" />

	<path
   id="path854"
   d="m 64.6,54.5 c 4.3,0.1 7.3,2.8 10.1,5.3 3.3,2.9 8.9,4.9 11.2,7.4 2.3,2.5 5.3,5 6.4,8.9 1.1,3.9 1.4,8.9 1.4,10.2 0,1.3 0.7,1 2.7,0 4.7,-2.3 9.9,-8.5 9.9,-8.5 -0.6,3.9 -5.7,7.4 -6.2,11.1 C 98.9,99.1 89,104 64.5,104 h -0.1 v 0 H 65"
   class="st3"
   inkscape:connector-curvature="0"
   style="fill:#ccac8d;stroke-width:1.36537266" />

	<path
   id="path856"
   d="m 80.4,46.7 c 0.9,3.1 4.1,13.6 -2.1,10.1 0,0 2.6,1.5 4.2,7.2 1.7,5.7 5.8,6.4 5.8,6.4 0,0 6.7,1.3 11.7,-3 4.2,-3.6 4.9,-10 3.1,-14.9 -1.8,-4.8 -5,-6.3 -9.7,-7.3 -4.7,-1.1 -14.1,-2 -13,1.5 z"
   class="st3"
   inkscape:connector-curvature="0"
   style="fill:#ccac8d;stroke-width:1.36537266" />

	<g
   id="g862"
   style="stroke-width:1.36537266">
		<circle
   id="circle858"
   r="8.8000002"
   cy="58.099998"
   cx="92.300003"
   style="stroke-width:1.36537266" />

		<circle
   id="circle860"
   r="2.3"
   cy="54.200001"
   cx="90"
   class="st4"
   style="fill:#ffffff;stroke-width:1.36537266" />

	</g>

	<path
   id="path864"
   d="m 78.9,57.7 c 0,0 7.9,5.4 12.2,10.7 4.3,5.3 4.2,6.3 4.2,6.3 l -3.1,1.4 c 0,0 -4.4,-8.3 -9.8,-11.4 C 76.9,61.6 76.3,59 76.3,59 Z"
   class="st1"
   inkscape:connector-curvature="0"
   style="fill:#efcca3;stroke-width:1.36537266" />

	<path
   id="path866"
   d="m 64.9,54.5 c -4.3,0.1 -7.5,2.8 -10.4,5.3 -3.3,2.9 -9.1,4.9 -11.4,7.4 -2.3,2.5 -5.4,5 -6.5,8.9 -1.1,3.9 -1.5,8.9 -1.5,10.2 0,1.3 0.2,1.4 -2.7,0 -4.7,-2.2 -9.9,-8.5 -9.9,-8.5 0.6,3.9 5.7,7.4 6.2,11.1 C 30.1,99.1 40,104 64.5,104 h 0.1 v 0 H 65"
   class="st3"
   inkscape:connector-curvature="0"
   style="fill:#ccac8d;stroke-width:1.36537266" />

	<path
   id="path868"
   d="M 88.1,71.4 C 83.3,65.5 75.6,60 64.9,60 h -0.1 v 0 c -10.7,0 -18.4,5.5 -23.2,11.4 -5,6.1 -4.6,8.5 -4.6,14.3 0,21 7.4,15 12.3,17.6 5,2.5 10.2,1.7 15.5,1.7 v 0 h 0.1 c 5.4,0 10.5,0.7 15.5,-1.8 4.9,-2.5 12.3,3.7 12.3,-17.3 0.1,-5.8 0.4,-8.4 -4.6,-14.5 z"
   class="st7"
   inkscape:connector-curvature="0"
   style="fill:#56332b;stroke-width:1.36537266" />

	<path
   id="path870"
   d="m 64.4,65.2 c 0,0 -0.7,9.7 -2.1,11.6 l 2.6,-0.6 z"
   class="st8"
   inkscape:connector-curvature="0"
   style="fill:#442823;stroke-width:1.36537266" />

	<path
   id="path872"
   d="m 65.1,65.2 c 0,0 0.7,9.7 2.1,11.6 l -2.6,-0.6 z"
   class="st8"
   inkscape:connector-curvature="0"
   style="fill:#442823;stroke-width:1.36537266" />

	<path
   id="path874"
   d="m 56.7,62.9 c -1,-2.3 2.6,-6 8.3,-6.1 5.7,0 9.3,3.7 8.3,6.1 -1,2.4 -4.6,3.1 -8.3,3.2 -3.6,-0.1 -7.3,-0.8 -8.3,-3.2 z"
   class="st7"
   inkscape:connector-curvature="0"
   style="fill:#56332b;stroke-width:1.36537266" />

	<path
   id="path876"
   d="m 65,65.2 c 0,-0.4 3.4,-0.5 5.2,-1.7 0,0 -3.7,1.2 -4.5,0.7 -0.8,-0.4 -1,-1.6 -1,-1.6 0,0 -0.3,1.2 -0.9,1.6 -0.7,0.4 -4.9,-0.7 -4.9,-0.7 0,0 5.6,1.4 5.6,1.7 0,0.3 -0.1,1.3 -0.1,2 0,2.5 0,8.7 0.4,9.2 0.6,0.9 0.4,-6.7 0.4,-9.2 -0.1,-0.8 -0.1,-1.6 -0.2,-2 z"
   inkscape:connector-curvature="0"
   style="stroke-width:1.36537266" />

	<path
   id="path878"
   d="m 65.2,78.6 c 1.7,0 4.7,1.2 7.4,3.1 -2.6,-2.9 -5.7,-4.9 -7.4,-4.9 -1.8,0 -5.6,2.2 -8.3,5.4 2.8,-2.2 6.4,-3.6 8.3,-3.6 z"
   class="st9"
   inkscape:connector-curvature="0"
   style="fill:#7f4a41;stroke-width:1.36537266" />

	<path
   id="path880"
   d="m 64.5,96.3 c -3.8,0 -7.5,-1.2 -10.9,-2.1 -0.7,-0.2 -1.4,0.3 -2.1,0.1 -6.3,-2 -11.4,-5.4 -14.5,-9.7 0,0.3 0,0.7 0,1 0,21 7.4,15.1 12.3,17.6 5,2.5 10.2,1.7 15.5,1.7 v 0 h 0.1 c 5.4,0 10.5,0.7 15.5,-1.8 4.9,-2.5 12.3,3.6 12.3,-17.4 0,-0.8 0,-1.6 0.1,-2.3 -2.9,4.7 -8.2,8.4 -14.8,10.6 -0.6,0.2 -2,-0.3 -2.6,-0.2 -3.6,1.2 -6.8,2.5 -10.9,2.5 z"
   class="st8"
   inkscape:connector-curvature="0"
   style="fill:#442823;stroke-width:1.36537266" />

	<path
   id="path882"
   d="m 55,85 c 0,0 -2.5,7.5 -0.8,10.8 l -2.3,-1 c 0,0 1.7,-7.6 3.1,-9.8 z"
   class="st8"
   inkscape:connector-curvature="0"
   style="fill:#442823;stroke-width:1.36537266" />

	<path
   id="path884"
   d="m 74.8,85 c 0,0 2.5,7.5 0.8,10.8 l 2.3,-1 c 0,0 -1.8,-7.6 -3.1,-9.8 z"
   class="st8"
   inkscape:connector-curvature="0"
   style="fill:#442823;stroke-width:1.36537266" />

	<path
   id="path886"
   d="m 48.6,46.7 c -0.9,3.1 -4.1,13.6 2.1,10.1 0,0 -2.6,1.5 -4.2,7.2 -1.6,5.7 -5.8,6.4 -5.8,6.4 0,0 -6.7,1.3 -11.7,-3 -4.2,-3.6 -4.9,-10 -3.1,-14.9 1.8,-4.9 5,-6.3 9.7,-7.3 4.7,-1.1 14,-2 13,1.5 z"
   class="st3"
   inkscape:connector-curvature="0"
   style="fill:#ccac8d;stroke-width:1.36537266" />

	<path
   id="path888"
   d="m 64.9,76.8 c 2.7,0 11.1,5.8 11.2,12.9 0,-0.1 0,-0.2 0,-0.4 0,-7.4 -6.8,-13.3 -11.2,-13.3 -4.4,0 -11.2,6 -11.2,13.3 0,0.1 0,0.2 0,0.4 0.1,-7.1 8.5,-12.9 11.2,-12.9 z"
   inkscape:connector-curvature="0"
   style="stroke-width:1.36537266" />

	<g
   id="g894"
   style="stroke-width:1.36537266">
		
			<ellipse
   id="ellipse890"
   ry="1.5"
   rx="0.80000001"
   cy="61.5"
   cx="66.699997"
   class="st10"
   transform="matrix(0.9683,-0.2497,0.2497,0.9683,-13.2339,18.6065)"
   style="fill:#331712;stroke-width:1.36537266" />

		
			<ellipse
   id="ellipse892"
   ry="1.5"
   rx="0.80000001"
   cy="61.5"
   cx="62.400002"
   class="st10"
   transform="matrix(0.9551,0.2963,-0.2963,0.9551,21.0115,-15.7209)"
   style="fill:#331712;stroke-width:1.36537266" />

	</g>

	<g
   id="g900"
   style="stroke-width:1.36537266">
		<circle
   id="circle896"
   r="8.8000002"
   cy="58.099998"
   cx="37.200001"
   style="stroke-width:1.36537266" />

		<circle
   id="circle898"
   r="2.3"
   cy="54.200001"
   cx="39.5"
   class="st4"
   style="fill:#ffffff;stroke-width:1.36537266" />

	</g>

	<g
   id="g904"
   style="stroke-width:1.36537266">
		<path
   id="path902"
   d="m 67.5,58.2 c 0,-0.1 -2.3,1 -2.9,1.1 -0.6,-0.1 -2.9,-1.2 -2.9,-1.1 0,0 1.9,0 2.9,0 1,0 2.9,0 2.9,0 z"
   class="st9"
   inkscape:connector-curvature="0"
   style="fill:#7f4a41;stroke-width:1.36537266" />

	</g>

	<path
   id="path906"
   d="m 50,57.7 c 0,0 -7.9,5.4 -12.2,10.7 -4.3,5.3 -4.2,6.3 -4.2,6.3 l 3.1,1.4 c 0,0 4.4,-8.3 9.8,-11.4 5.4,-3.1 6.1,-5.7 6.1,-5.7 z"
   class="st1"
   inkscape:connector-curvature="0"
   style="fill:#efcca3;stroke-width:1.36537266" />

	<path
   id="path908"
   d="m 32.7,41.7 c 0,0 -2.7,7.4 -8.7,10.5 0,0 9.4,-1.1 8.7,-10.5 z"
   class="st3"
   inkscape:connector-curvature="0"
   style="fill:#ccac8d;stroke-width:1.36537266" />

	<path
   id="path910"
   d="m 95.8,41.7 c 0,0 2.7,7.4 8.7,10.5 0,0 -9.4,-1.1 -8.7,-10.5 z"
   class="st3"
   inkscape:connector-curvature="0"
   style="fill:#ccac8d;stroke-width:1.36537266" />

	<path
   id="path912"
   d="m 78.7,55.5 c 0,0 -5.9,-6.2 -13.8,-6.4 v 0 c -0.1,0 0.2,0 0.1,0 -0.1,0 0.1,0 0.1,0 v 0 c -8,0.2 -13.8,6.4 -13.8,6.4 6.9,-4.8 12.8,-4.7 13.8,-4.7 v 0 c 0,0 0,0 0,0 0,0 0,0 0,0 v 0 c -0.1,0 6.7,-0.1 13.6,4.7 z"
   class="st3"
   inkscape:connector-curvature="0"
   style="fill:#ccac8d;stroke-width:1.36537266" />

	<path
   id="path914"
   d="m 71.8,42.5 c 0,0 -3,-4.2 -7,-4.3 v 0 c 0,0 0.1,0 0.1,0 0,0 0.1,0 0.1,0 v 0 c -3,0.1 -6.9,4.3 -6.9,4.3 3.4,-3.3 6.9,-3.2 6.9,-3.2 v 0 c 0,0 0,0 0,0 0,0 0,0 0,0 v 0 c 0,0 3.3,-0.1 6.8,3.2 z"
   class="st3"
   inkscape:connector-curvature="0"
   style="fill:#ccac8d;stroke-width:1.36537266" />

	<path
   id="path916"
   d="m 37.2,73.2 c 0,0 -4.7,2.3 -8.1,0.9 v 0 c 0,0 -0.1,0 -0.1,0 0,0 0,0 0,0 v 0 c -3,-1.7 -4.5,-6.8 -4.5,-6.8 0,0 3,9 12.7,5.9 z"
   class="st3"
   inkscape:connector-curvature="0"
   style="fill:#ccac8d;stroke-width:1.36537266" />

	<path
   id="path918"
   d="m 92,73.2 c 0,0 4.7,2.3 8.1,0.9 v 0 c 0,0 0,0 0,0 0,0 0,0 0,0 v 0 c 4,-1.7 4.6,-6.8 4.6,-6.8 0,0 -3,9 -12.7,5.9 z"
   class="st3"
   inkscape:connector-curvature="0"
   style="fill:#ccac8d;stroke-width:1.36537266" />

	<g
   id="g922"
   style="stroke-width:1.36537266">
		<path
   id="path920"
   d="m 42.6,41.2 c 2.6,-0.5 6.9,-0.6 10.3,0.5 4.3,1.5 0.8,7 1.7,7.3 0.9,0.3 2.1,-3.8 10.1,-3.4 8.1,0.4 9,4 10.1,3.4 1.1,-0.6 -1.1,-10 11,-7.8 0,0 -12.7,-3.4 -12.1,5.8 0,0 -7.3,-5.6 -17.5,-0.6 0.1,0 2.7,-8.6 -13.6,-5.2 z"
   class="st3"
   inkscape:connector-curvature="0"
   style="fill:#ccac8d;stroke-width:1.36537266" />

	</g>

	<path
   id="path924"
   d="m 86.9,41.2 c 0.2,0 0.3,0.1 0.4,0.1 0.1,0 -0.1,-0.1 -0.4,-0.1 z"
   class="st3"
   inkscape:connector-curvature="0"
   style="fill:#ccac8d;stroke-width:1.36537266" />

	<path
   id="path926"
   d="m 86.9,41.2 c 0,0 0,0 0,0 0,0 0,0 0,0 z"
   class="st3"
   inkscape:connector-curvature="0"
   style="fill:#ccac8d;stroke-width:1.36537266" />

	<path
   id="path928"
   d="m 39.1,28.9 c 0,0 -10.8,13.6 -12.4,18.8 -1.6,5.3 -2.8,27 -4.2,30.1 l -5,-21.4 9.2,-22.3 z"
   class="st3"
   inkscape:connector-curvature="0"
   style="fill:#ccac8d;stroke-width:1.36537266" />

	<path
   id="path930"
   d="m 89.9,28.9 c 0,0 10.8,13.6 12.4,18.8 1.6,5.3 2.8,27 4.2,30.1 l 5,-21.4 -9.2,-22.3 z"
   class="st3"
   inkscape:connector-curvature="0"
   style="fill:#ccac8d;stroke-width:1.36537266" />

	<path
   id="path932"
   d="m 89.4,28.9 c 0,0 11.6,9.7 15,20.9 3.4,11.2 2,24.8 4.6,26.5 3.7,2.4 7.9,-11.9 9.3,-13.4 2.2,-2.4 9.5,-8.5 10,-9.6 0.5,-1.1 -14.8,-17.8 -21.5,-21.1 -8.1,-3.8 -18.1,-4.1 -17.4,-3.3 z"
   class="st7"
   inkscape:connector-curvature="0"
   style="fill:#56332b;stroke-width:1.36537266" />

	<path
   id="path934"
   d="m 99.3,34.9 c 0,0 13.7,17.5 13.5,39.3 L 118.3,63 c -0.1,0 -4.9,-14.3 -19,-28.1 z"
   class="st8"
   inkscape:connector-curvature="0"
   style="fill:#442823;stroke-width:1.36537266" />

	<path
   id="path936"
   d="m 39.1,28.9 c 0,0 -11.6,9.7 -15,20.9 C 20.7,61 22.1,74.6 19.5,76.3 15.8,78.7 11.6,64.4 10.2,62.9 8,60.5 0.7,54.4 0.2,53.3 -0.3,52.2 15,35.5 21.7,32.2 29.8,28.4 39.8,28.1 39.1,28.9 Z"
   class="st7"
   inkscape:connector-curvature="0"
   style="fill:#56332b;stroke-width:1.36537266" />

	<path
   id="path938"
   d="m 29.2,34.9 c 0,0 -13.7,17.5 -13.5,39.3 L 10.3,63 c 0,0 4.8,-14.3 18.9,-28.1 z"
   class="st8"
   inkscape:connector-curvature="0"
   style="fill:#442823;stroke-width:1.36537266" />

	<path
   id="path940"
   d="m 21.8,74.6 c 0,0 1,5.4 2.6,7.1 1.6,1.7 0.5,-1.3 0.5,-1.3 0,0 -1.7,-0.9 -1.4,-7.8 0.3,-6.9 -1.7,2 -1.7,2 z"
   class="st3"
   inkscape:connector-curvature="0"
   style="fill:#ccac8d;stroke-width:1.36537266" />

	<path
   id="path942"
   d="m 107.1,74.6 c 0,0 -1,5.4 -2.6,7.1 -1.6,1.7 -0.5,-1.3 -0.5,-1.3 0,0 1.7,-0.9 1.4,-7.8 -0.3,-6.9 1.7,2 1.7,2 z"
   class="st3"
   inkscape:connector-curvature="0"
   style="fill:#ccac8d;stroke-width:1.36537266" />

	<g
   id="g950"
   style="stroke-width:1.36537266">
		<circle
   id="circle944"
   r="0.80000001"
   cy="70.5"
   cx="54.5"
   class="st8"
   style="fill:#442823;stroke-width:1.36537266" />

		<circle
   id="circle946"
   r="0.80000001"
   cy="75.300003"
   cx="49.900002"
   class="st8"
   style="fill:#442823;stroke-width:1.36537266" />

		<circle
   id="circle948"
   r="0.80000001"
   cy="70.5"
   cx="48.400002"
   class="st8"
   style="fill:#442823;stroke-width:1.36537266" />

	</g>

	<g
   id="g958"
   style="stroke-width:1.36537266">
		<circle
   id="circle952"
   r="0.80000001"
   cy="70.5"
   cx="74"
   class="st8"
   style="fill:#442823;stroke-width:1.36537266" />

		<circle
   id="circle954"
   r="0.80000001"
   cy="75.300003"
   cx="78.599998"
   class="st8"
   style="fill:#442823;stroke-width:1.36537266" />

		<circle
   id="circle956"
   r="0.80000001"
   cy="70.5"
   cx="80.099998"
   class="st8"
   style="fill:#442823;stroke-width:1.36537266" />

	</g>

</g>
    <g
       id="g1039"
       transform="matrix(0.06480529,0,0,0.06480529,155.66959,107.10524)"
       style="stroke-width:39.8705368">
      <path
         id="path1025"
         d="M 0,0 H 256 V 256 H 0 Z"
         inkscape:connector-curvature="0"
         style="fill:#f7df1e;stroke-width:39.8705368" />
      <path
         id="path1027"
         d="m 67.312,213.932 19.59,-11.856 c 3.78,6.701 7.218,12.371 15.465,12.371 7.905,0 12.89,-3.092 12.89,-15.12 v -81.798 h 24.057 v 82.138 c 0,24.917 -14.606,36.259 -35.916,36.259 -19.245,0 -30.416,-9.967 -36.087,-21.996 m 85.07,-2.576 19.588,-11.341 c 5.157,8.421 11.859,14.607 23.715,14.607 9.969,0 16.325,-4.984 16.325,-11.858 0,-8.248 -6.53,-11.17 -17.528,-15.98 l -6.013,-2.58 c -17.357,-7.387 -28.87,-16.667 -28.87,-36.257 0,-18.044 13.747,-31.792 35.228,-31.792 15.294,0 26.292,5.328 34.196,19.247 l -18.732,12.03 c -4.125,-7.389 -8.591,-10.31 -15.465,-10.31 -7.046,0 -11.514,4.468 -11.514,10.31 0,7.217 4.468,10.14 14.778,14.608 l 6.014,2.577 c 20.45,8.765 31.963,17.7 31.963,37.804 0,21.654 -17.012,33.51 -39.867,33.51 -22.339,0 -36.774,-10.654 -43.819,-24.574"
         inkscape:connector-curvature="0"
         style="stroke-width:39.8705368" />
    </g>
  </g>
  <style
     id="style850"
     type="text/css">
	.st0{fill:#C1272D;}
	.st1{fill:#EFCCA3;}
	.st2{fill:#ED1C24;}
	.st3{fill:#CCAC8D;}
	.st4{fill:#FFFFFF;}
	.st5{fill:#FF931E;}
	.st6{fill:#FFB81E;}
	.st7{fill:#56332B;}
	.st8{fill:#442823;}
	.st9{fill:#7F4A41;}
	.st10{fill:#331712;}
	.st11{fill:#FFCC66;}
	.st12{fill:#CCCCCC;}
	.st13{fill:#B3B3B3;}
	.st14{fill:#989898;}
	.st15{fill:#323232;}
	.st16{fill:#1E1E1E;}
	.st17{fill:#4C4C4C;}
	.st18{fill:#E6E6E6;}
	.st19{fill:#606060;}
</style>
</svg>
